<?xml version="1.0" encoding="UTF-8" standalone="no"?>
<!DOCTYPE svg PUBLIC "-//W3C//DTD SVG 1.1//EN"
 "http://www.w3.org/Graphics/SVG/1.1/DTD/svg11.dtd">
<!-- Generated by graphviz version 2.40.1 (20161225.0304)
 -->
<!-- Title: G Pages: 1 -->
<svg width="612pt" height="438pt"
 viewBox="0.00 0.00 612.00 438.00" xmlns="http://www.w3.org/2000/svg" xmlns:xlink="http://www.w3.org/1999/xlink">
<g id="graph0" class="graph" transform="scale(1 1) rotate(0) translate(4 434)">
<title>G</title>
<polygon fill="#ffffff" stroke="transparent" points="-4,4 -4,-434 608,-434 608,4 -4,4"/>
<g id="clust1" class="cluster">
<title>cluster_Global</title>
<path fill="none" stroke="#c0c0c0" d="M20,-8C20,-8 584,-8 584,-8 590,-8 596,-14 596,-20 596,-20 596,-410 596,-410 596,-416 590,-422 584,-422 584,-422 20,-422 20,-422 14,-422 8,-416 8,-410 8,-410 8,-20 8,-20 8,-14 14,-8 20,-8"/>
<text text-anchor="middle" x="302" y="-409.2" font-family="Times,serif" font-size="11.00" fill="#c0c0c0">Global</text>
</g>
<g id="clust2" class="cluster">
<title>cluster_\D3strukt0r</title>
<path fill="none" stroke="#c0c0c0" d="M28,-16C28,-16 576,-16 576,-16 582,-16 588,-22 588,-28 588,-28 588,-382 588,-382 588,-388 582,-394 576,-394 576,-394 28,-394 28,-394 22,-394 16,-388 16,-382 16,-382 16,-28 16,-28 16,-22 22,-16 28,-16"/>
<text text-anchor="middle" x="302" y="-381.2" font-family="Times,serif" font-size="11.00" fill="#c0c0c0">D3strukt0r</text>
</g>
<g id="clust3" class="cluster">
<title>cluster_\D3strukt0r\VotifierClient</title>
<path fill="none" stroke="#c0c0c0" d="M36,-24C36,-24 568,-24 568,-24 574,-24 580,-30 580,-36 580,-36 580,-354 580,-354 580,-360 574,-366 568,-366 568,-366 36,-366 36,-366 30,-366 24,-360 24,-354 24,-354 24,-36 24,-36 24,-30 30,-24 36,-24"/>
<text text-anchor="middle" x="302" y="-353.2" font-family="Times,serif" font-size="11.00" fill="#c0c0c0">VotifierClient</text>
</g>
<g id="clust4" class="cluster">
<title>cluster_\D3strukt0r\VotifierClient\ServerType</title>
<path fill="none" stroke="#c0c0c0" d="M44,-266C44,-266 547.5,-266 547.5,-266 553.5,-266 559.5,-272 559.5,-278 559.5,-278 559.5,-326 559.5,-326 559.5,-332 553.5,-338 547.5,-338 547.5,-338 44,-338 44,-338 38,-338 32,-332 32,-326 32,-326 32,-278 32,-278 32,-272 38,-266 44,-266"/>
<text text-anchor="middle" x="295.75" y="-325.2" font-family="Times,serif" font-size="11.00" fill="#c0c0c0">ServerType</text>
</g>
<g id="clust5" class="cluster">
<title>cluster_\D3strukt0r\VotifierClient\VoteType</title>
<path fill="none" stroke="#c0c0c0" d="M268,-186C268,-186 551,-186 551,-186 557,-186 563,-192 563,-198 563,-198 563,-246 563,-246 563,-252 557,-258 551,-258 551,-258 268,-258 268,-258 262,-258 256,-252 256,-246 256,-246 256,-198 256,-198 256,-192 262,-186 268,-186"/>
<text text-anchor="middle" x="409.5" y="-245.2" font-family="Times,serif" font-size="11.00" fill="#c0c0c0">VoteType</text>
</g>
<!-- \\D3strukt0r\\VotifierClient\\ServerType\\NuVotifier -->
<g id="node1" class="node">
<title>\\D3strukt0r\\VotifierClient\\ServerType\\NuVotifier</title>
<polygon fill="none" stroke="#000000" points="551.5,-310 467.5,-310 467.5,-274 551.5,-274 551.5,-310"/>
<text text-anchor="middle" x="509.5" y="-289.2" font-family="Courier,monospace" font-size="11.00" fill="#000000">NuVotifier</text>
</g>
<!-- \\D3strukt0r\\VotifierClient\\ServerType\\ClassicVotifier -->
<g id="node2" class="node">
<title>\\D3strukt0r\\VotifierClient\\ServerType\\ClassicVotifier</title>
<polygon fill="none" stroke="#000000" points="375,-310 257,-310 257,-274 375,-274 375,-310"/>
<text text-anchor="middle" x="316" y="-289.2" font-family="Courier,monospace" font-size="11.00" fill="#000000">ClassicVotifier</text>
</g>
<!-- \\D3strukt0r\\VotifierClient\\ServerType\\NuVotifier&#45;&gt;\\D3strukt0r\\VotifierClient\\ServerType\\ClassicVotifier -->
<g id="edge1" class="edge">
<title>\\D3strukt0r\\VotifierClient\\ServerType\\NuVotifier&#45;&gt;\\D3strukt0r\\VotifierClient\\ServerType\\ClassicVotifier</title>
<path fill="none" stroke="#000000" d="M467.0356,-292C443.163,-292 412.7707,-292 385.5171,-292"/>
<polygon fill="none" stroke="#000000" points="385.2458,-288.5001 375.2457,-292 385.2457,-295.5001 385.2458,-288.5001"/>
</g>
<!-- \\D3strukt0r\\VotifierClient\\ServerType\\ServerTypeInterface -->
<g id="node3" class="node">
<title>\\D3strukt0r\\VotifierClient\\ServerType\\ServerTypeInterface</title>
<polygon fill="none" stroke="#000000" points="185,-310 40,-310 40,-274 185,-274 185,-310"/>
<text text-anchor="middle" x="112.5" y="-289.2" font-family="Courier,monospace" font-size="11.00" fill="#000000">ServerTypeInterface</text>
</g>
<!-- \\D3strukt0r\\VotifierClient\\ServerType\\ClassicVotifier&#45;&gt;\\D3strukt0r\\VotifierClient\\ServerType\\ServerTypeInterface -->
<g id="edge3" class="edge">
<title>\\D3strukt0r\\VotifierClient\\ServerType\\ClassicVotifier&#45;&gt;\\D3strukt0r\\VotifierClient\\ServerType\\ServerTypeInterface</title>
<path fill="none" stroke="#000000" stroke-dasharray="1,5" d="M256.866,-292C237.6039,-292 215.8548,-292 195.1929,-292"/>
<polygon fill="none" stroke="#000000" points="195.1529,-288.5001 185.1528,-292 195.1528,-295.5001 195.1529,-288.5001"/>
</g>
<!-- \\D3strukt0r\\VotifierClient\\VoteType\\ClassicVote -->
<g id="node4" class="node">
<title>\\D3strukt0r\\VotifierClient\\VoteType\\ClassicVote</title>
<polygon fill="none" stroke="#000000" points="555,-230 464,-230 464,-194 555,-194 555,-230"/>
<text text-anchor="middle" x="509.5" y="-209.2" font-family="Courier,monospace" font-size="11.00" fill="#000000">ClassicVote</text>
</g>
<!-- \\D3strukt0r\\VotifierClient\\VoteType\\VoteInterface -->
<g id="node5" class="node">
<title>\\D3strukt0r\\VotifierClient\\VoteType\\VoteInterface</title>
<polygon fill="none" stroke="#000000" points="368,-230 264,-230 264,-194 368,-194 368,-230"/>
<text text-anchor="middle" x="316" y="-209.2" font-family="Courier,monospace" font-size="11.00" fill="#000000">VoteInterface</text>
</g>
<!-- \\D3strukt0r\\VotifierClient\\VoteType\\ClassicVote&#45;&gt;\\D3strukt0r\\VotifierClient\\VoteType\\VoteInterface -->
<g id="edge2" class="edge">
<title>\\D3strukt0r\\VotifierClient\\VoteType\\ClassicVote&#45;&gt;\\D3strukt0r\\VotifierClient\\VoteType\\VoteInterface</title>
<path fill="none" stroke="#000000" stroke-dasharray="1,5" d="M463.6432,-212C438.0626,-212 405.8464,-212 378.04,-212"/>
<polygon fill="none" stroke="#000000" points="378.0155,-208.5001 368.0155,-212 378.0155,-215.5001 378.0155,-208.5001"/>
</g>
<!-- \\D3strukt0r\\VotifierClient\\Messages -->
<g id="node6" class="node">
<title>\\D3strukt0r\\VotifierClient\\Messages</title>
<polygon fill="none" stroke="#000000" points="545,-176 474,-176 474,-140 545,-140 545,-176"/>
<text text-anchor="middle" x="509.5" y="-155.2" font-family="Courier,monospace" font-size="11.00" fill="#000000">Messages</text>
</g>
<!-- \\D3strukt0r\\VotifierClient\\Vote -->
<g id="node7" class="node">
<title>\\D3strukt0r\\VotifierClient\\Vote</title>
<polygon fill="none" stroke="#000000" points="536.5,-122 482.5,-122 482.5,-86 536.5,-86 536.5,-122"/>
<text text-anchor="middle" x="509.5" y="-101.2" font-family="Courier,monospace" font-size="11.00" fill="#000000">Vote</text>
</g>
<!-- \\D3strukt0r\\VotifierClient\\ServerConnection -->
<g id="node8" class="node">
<title>\\D3strukt0r\\VotifierClient\\ServerConnection</title>
<polygon fill="none" stroke="#000000" points="572,-68 447,-68 447,-32 572,-32 572,-68"/>
<text text-anchor="middle" x="509.5" y="-47.2" font-family="Courier,monospace" font-size="11.00" fill="#000000">ServerConnection</text>
</g>
</g>
</svg>
